<?xml version="1.0" encoding="UTF-8" standalone="no"?>
<!-- ARC is A xrad yrad xrotation-degrees largearc sweep end_x end_y -->

<svg
   xmlns:shaper="http://www.shapertools.com/namespaces/shaper"
   xmlns:dc="http://purl.org/dc/elements/1.1/"
   xmlns:cc="http://creativecommons.org/ns#"
   xmlns:rdf="http://www.w3.org/1999/02/22-rdf-syntax-ns#"
   xmlns:svg="http://www.w3.org/2000/svg"
   xmlns="http://www.w3.org/2000/svg"
   xmlns:sodipodi="http://sodipodi.sourceforge.net/DTD/sodipodi-0.dtd"
   xmlns:inkscape="http://www.inkscape.org/namespaces/inkscape"
   enable-background="new 0.0000 0.0000 5.7695 4.4488"
   height="4.4488in"
   width="5.7695in"
   version="1.1"
   viewBox="0.0000 0.0000 5.7695 4.4488"
   x="0.0000in"
   y="0.0000in"
   shaper:sketchupaddin="2.2.1"
   id="svg16"
   sodipodi:docname="buttress_single.svg"
   inkscape:version="0.92.3 (2405546, 2018-03-11)">
  <metadata
     id="metadata22">
    <rdf:RDF>
      <cc:Work
         rdf:about="">
        <dc:format>image/svg+xml</dc:format>
        <dc:type
           rdf:resource="http://purl.org/dc/dcmitype/StillImage" />
        <dc:title>buttress cut profile
</dc:title>
      </cc:Work>
    </rdf:RDF>
  </metadata>
  <defs
     id="defs20" />
  <sodipodi:namedview
     pagecolor="#ffffff"
     bordercolor="#666666"
     borderopacity="1"
     objecttolerance="10"
     gridtolerance="10"
     guidetolerance="10"
     inkscape:pageopacity="0"
     inkscape:pageshadow="2"
     inkscape:window-width="1600"
     inkscape:window-height="837"
     id="namedview18"
     showgrid="false"
     inkscape:document-units="in"
     inkscape:zoom="0.51275387"
     inkscape:cx="276.93599"
     inkscape:cy="369.56268"
     inkscape:window-x="-8"
     inkscape:window-y="-8"
     inkscape:window-maximized="1"
     inkscape:current-layer="svg16" />
  <title
     id="title2">buttress cut profile
</title>
  <desc
     id="desc4">Shaper cut profile from Sketchup model buttress
</desc>
  <path
     d="M 4.2459 0.2953 A 0.2249 0.2249 90.0000 0 1 4.4596 0.0000  L 5.7695 0.0000  L 5.7695 0.5906  L 5.5800 0.5906  A 2.8740 2.8740 39.1000 0 1 5.1140 3.3865  L 5.3455 3.6179  L 4.9279 4.0355  L 4.6935 3.8011  A 2.8740 2.8740 129.0916 0 1 1.0760 3.8011  L 0.8416 4.0355  L 0.4240 3.6179  L 0.6555 3.3865  A 2.8740 2.8740 200.0609 0 1 0.1895 0.5906  L 0.0000 0.5906  L 0.0000 0.0000  L 1.3100 0.0000  A 0.2249 0.2249 90.0000 0 1 1.5236 0.2953  A 1.8701 1.8701 223.2295 0 0 2.8848 3.4449 A 1.8701 1.8701 223.2295 0 0 4.2459 0.2953Z "
     transform="matrix(1,0,0,-1,0.0,4.4488)"
     shaper:pathType="exterior"
     shaper:cutDepth="0.1969"
     fill="rgb(0,0,0)"
     id="path6"
     style="fill:none;stroke:#000000;stroke-opacity:1;stroke-width:0.01041667;stroke-miterlimit:4;stroke-dasharray:none" />
  <path
     d="M 0.3318 0.2325 A 0.0650 0.0650 285.0000 0 0 0.2981 0.3580 A 0.0650 0.0650 285.0000 0 0 0.3318 0.2325Z "
     transform="matrix(1,0,0,-1,0.0,4.4488)"
     shaper:pathType="interior"
     shaper:cutDepth="0.1969"
     fill="rgb(255,255,255)"
     stroke="rgb(0,0,0)"
     stroke-width="2"
     vector-effect="non-scaling-stroke"
     id="path8"
     style="fill:none;stroke:#ff0000;stroke-opacity:1;stroke-width:0.62500002;stroke-miterlimit:4;stroke-dasharray:none" />
  <path
     d="M 0.8880 3.5478 A 0.0650 0.0650 300.0000 0 0 0.8230 3.6603 A 0.0650 0.0650 300.0000 0 0 0.8880 3.5478Z "
     transform="matrix(1,0,0,-1,0.0,4.4488)"
     shaper:pathType="interior"
     shaper:cutDepth="0.1969"
     fill="rgb(255,255,255)"
     stroke="rgb(0,0,0)"
     stroke-width="2"
     vector-effect="non-scaling-stroke"
     id="path10"
     style="fill:none;stroke:#ff0000;stroke-opacity:1;stroke-width:0.62500002;stroke-miterlimit:4;stroke-dasharray:none" />
  <path
     d="M 4.9465 3.6603 A 0.0650 0.0650 60.0000 0 0 4.8815 3.5478 A 0.0650 0.0650 60.0000 0 0 4.9465 3.6603Z "
     transform="matrix(1,0,0,-1,0.0,4.4488)"
     shaper:pathType="interior"
     shaper:cutDepth="0.1969"
     fill="rgb(255,255,255)"
     stroke="rgb(0,0,0)"
     stroke-width="2"
     vector-effect="non-scaling-stroke"
     id="path12"
     style="fill:none;stroke:#ff0000;stroke-opacity:1;stroke-width:0.62500002;stroke-miterlimit:4;stroke-dasharray:none" />
  <path
     d="M 5.4077 0.3402 A 0.0650 0.0650 136.2000 0 0 5.5014 0.2503 A 0.0650 0.0650 136.2000 0 0 5.4077 0.3402Z "
     transform="matrix(1,0,0,-1,0.0,4.4488)"
     shaper:pathType="interior"
     shaper:cutDepth="0.1969"
     fill="rgb(255,255,255)"
     stroke="rgb(0,0,0)"
     stroke-width="2"
     vector-effect="non-scaling-stroke"
     id="path14"
     style="fill:none;stroke:#ff0000;stroke-opacity:1;stroke-width:0.62500002;stroke-miterlimit:4;stroke-dasharray:none" />
</svg>
